:SAMPLES-PER-SECOND 30
:FULLY-SPECIFIED
:DEGREES
393
root  65.3164 35.939 -7.32605 -135.336 -1.07013 -179.675
RightUpLeg  -87.8673 -25.9845 39.2715
RightLeg  39.0998 5.47961 4.48064
RightFoot  -2.36791 0.719775 -9.34723
RightToes  0.000482159 0.542163 -0.142577
Spine  69.0274 -4.56864 6.15326
Spine1  12.8376 1.31018 -5.54337
HEad  -31.9163 -7.78638 3.11541
LeftShoulder1  4.33815 -20.8892 -10.4626
LeftArm  -106.207 -70.119 36.9534
LeftForeArm  3.64576 -19.4307 -2.43731
LeftHand  -0.25398 0.0180481 5.50724
RightShoulder  1.38752 11.5194 0.949025
RightArm  -78.0286 49.6038 -20.232
RightForeArm  -22.3593 7.96008 -1.1521
RightHand  1.98028 9.26307 15.0254
LeftUpLeg  -96.3041 31.1005 -49.7755
LeftLeg  38.3298 -12.1447 -9.762
LeftFoot  0.821593 -0.777248 7.23845
LeftToes  1.06247e-005 4.65855e-005 -8.18504e-006
394
root  65.1363 36.0098 -7.26798 -135.698 -1.05994 -179.75
RightUpLeg  -87.4583 -26.4167 39.0449
RightLeg  38.3691 5.40839 4.30355
RightFoot  -2.12765 0.724172 -9.13648
RightToes  0.000482159 0.542163 -0.142577
Spine  68.7594 -4.81928 6.41432
Spine1  12.9496 1.33691 -5.95088
HEad  -32.4226 -7.14112 2.17677
LeftShoulder1  4.31844 -21.1468 -10.1646
LeftArm  -105.134 -70.4456 34.328
LeftForeArm  4.38471 -20.3188 -3.0561
LeftHand  -0.25398 0.0180481 5.50724
RightShoulder  1.46586 11.63 1.45866
RightArm  -77.7255 48.9966 -20.1166
RightForeArm  -21.2614 8.11958 -1.19751
RightHand  2.15353 9.03773 16.6323
LeftUpLeg  -95.2978 30.9516 -49.1319
LeftLeg  37.911 -11.7382 -9.29375
LeftFoot  0.993286 -0.807915 7.40995
LeftToes  1.06247e-005 4.65855e-005 -8.18504e-006
395
root  64.9503 36.1126 -7.19257 -136.28 -1.0499 -179.852
RightUpLeg  -86.8767 -27.0281 38.8604
RightLeg  37.4907 5.38445 4.14795
RightFoot  -1.85899 0.806671 -9.83891
RightToes  0.000482159 0.542163 -0.142577
Spine  68.6708 -5.06843 6.47359
Spine1  12.8397 1.20611 -6.31669
HEad  -32.7771 -6.30354 1.24435
LeftShoulder1  4.2842 -21.2694 -9.91374
LeftArm  -102.642 -70.4487 29.851
LeftForeArm  7.3389 -22.1567 -4.04385
LeftHand  -0.25398 0.0180481 5.50724
RightShoulder  1.57307 12.2063 1.83062
RightArm  -76.3064 48.0579 -19.1674
RightForeArm  -20.6527 8.69796 -0.965088
RightHand  2.2815 8.6891 18.0797
LeftUpLeg  -94.022 30.9755 -48.6836
LeftLeg  37.1498 -11.5456 -8.89298
LeftFoot  1.18726 -0.8925 8.0493
LeftToes  1.06247e-005 4.65855e-005 -8.18504e-006
396
root  64.7997 36.2414 -7.09188 -137.029 -1.11111 -179.774
RightUpLeg  -85.9599 -27.6302 38.8465
RightLeg  36.3562 5.46064 4.03841
RightFoot  -1.34463 0.935646 -10.7582
RightToes  0.000482159 0.542163 -0.142577
Spine  68.5548 -5.07013 6.4715
Spine1  12.6506 1.25901 -6.49571
HEad  -32.8439 -5.83784 0.63853
LeftShoulder1  4.36938 -21.3251 -10.2499
LeftArm  -98.5791 -70.6751 25.2506
LeftForeArm  10.3724 -24.3435 -4.69796
LeftHand  -0.25398 0.0180481 5.50724
RightShoulder  1.68823 12.8697 2.16498
RightArm  -74.2928 46.5782 -16.9181
RightForeArm  -19.8151 10.577 -0.294558
RightHand  2.27878 8.28796 18.6043
LeftUpLeg  -92.8525 31.2253 -48.3246
LeftLeg  36.2263 -11.4696 -8.54272
LeftFoot  1.60882 -1.02404 8.91545
LeftToes  1.06247e-005 4.65855e-005 -8.18504e-006
397
root  64.7048 36.3859 -6.96128 -137.88 -1.42319 -179.447
RightUpLeg  -84.6619 -28.1662 38.9558
RightLeg  34.9586 5.51339 3.87381
RightFoot  -0.630319 1.01291 -10.8121
RightToes  0.000482159 0.542163 -0.142577
Spine  68.0159 -4.80305 6.68999
Spine1  12.8644 1.70037 -6.46266
HEad  -32.8509 -5.77903 0.104416
LeftShoulder1  4.55431 -21.503 -10.9279
LeftArm  -94.3091 -71.2492 21.3479
LeftForeArm  12.1915 -26.1383 -4.96372
LeftHand  -0.25398 0.0180481 5.50724
RightShoulder  1.84054 13.0812 3.05657
RightArm  -73.8616 44.7979 -14.3327
RightForeArm  -16.1605 13.8327 0.916026
RightHand  2.169 7.68622 18.544
LeftUpLeg  -91.7553 31.5637 -47.6194
LeftLeg  35.2308 -11.4103 -8.19339
LeftFoot  2.31899 -1.14233 9.39859
LeftToes  1.06247e-005 4.65855e-005 -8.18504e-006
398
root  64.6351 36.5581 -6.80467 -138.998 -2.06174 -179.148
RightUpLeg  -83.0486 -28.9928 38.9414
RightLeg  33.3954 5.47151 3.62135
RightFoot  0.0740396 1.01538 -10.1178
RightToes  0.000482159 0.542163 -0.142577
Spine  67.451 -4.48371 6.8081
Spine1  13.0581 1.91051 -5.84946
HEad  -32.7361 -5.13937 -1.2524
LeftShoulder1  4.87334 -21.523 -12.3158
LeftArm  -88.8735 -71.4542 17.0859
LeftForeArm  12.1841 -27.7152 -5.32317
LeftHand  -0.25398 0.0180481 5.50724
RightShoulder  1.97017 13.1904 3.85304
RightArm  -74.6208 43.3676 -11.5652
RightForeArm  -10.1489 17.2874 2.53537
RightHand  2.01619 6.69705 18.6886
LeftUpLeg  -89.9882 31.879 -46.3139
LeftLeg  33.8953 -11.4192 -7.80266
LeftFoot  3.12999 -1.2142 9.39172
LeftToes  1.06247e-005 4.65855e-005 -8.18504e-006
399
root  64.5609 36.7738 -6.62568 -140.592 -2.96872 -179.119
RightUpLeg  -81.1999 -30.4449 38.7027
RightLeg  31.7673 5.44451 3.38122
RightFoot  0.752242 1.03861 -9.71974
RightToes  0.000482159 0.542163 -0.142577
Spine  67.0041 -4.45063 6.87455
Spine1  13.3193 1.81887 -5.30536
HEad  -32.6028 -3.97433 -2.9674
LeftShoulder1  5.08527 -21.8091 -12.991
LeftArm  -81.7367 -70.6934 10.655
LeftForeArm  11.0744 -29.4819 -5.80004
LeftHand  -0.25398 0.0180481 5.50724
RightShoulder  2.07701 13.1653 4.59683
RightArm  -73.3127 42.519 -8.86994
RightForeArm  -7.19526 19.7554 3.90014
RightHand  1.82648 5.49182 18.8508
LeftUpLeg  -86.9717 32.164 -44.4761
LeftLeg  31.8974 -11.4587 -7.25764
LeftFoot  3.89589 -1.28608 9.413
LeftToes  1.06247e-005 4.65855e-005 -8.18504e-006
400
root  64.5055 37.0174 -6.42446 -142.587 -4.06448 -179.196
RightUpLeg  -79.1116 -32.3296 38.4066
RightLeg  30.0904 5.44632 3.16384
RightFoot  1.48891 1.12981 -9.92209
RightToes  0.000482159 0.542163 -0.142577
Spine  66.7417 -4.61209 6.88754
Spine1  13.3024 1.63109 -5.18148
HEad  -32.2941 -2.71733 -4.39164
LeftShoulder1  5.23069 -22.2525 -13.2237
LeftArm  -73.5996 -69.4764 2.97626
LeftForeArm  9.18218 -30.7873 -6.22371
LeftHand  -0.25398 0.0180481 5.50724
RightShoulder  2.17836 13.2195 5.23384
RightArm  -68.95 41.7518 -5.70727
RightForeArm  -9.26865 21.2759 4.77556
RightHand  1.59733 4.35868 18.4631
LeftUpLeg  -83.0424 32.4283 -42.1957
LeftLeg  29.3338 -11.354 -6.49569
LeftFoot  4.70646 -1.3984 9.69041
LeftToes  1.06247e-005 4.65855e-005 -8.18504e-006
401
root  64.5091 37.2608 -6.20823 -144.743 -5.34918 -179.146
RightUpLeg  -76.7792 -34.3093 38.2058
RightLeg  28.321 5.32657 2.87172
RightFoot  2.15818 1.20216 -9.99935
RightToes  0.000482159 0.542163 -0.142577
Spine  66.3036 -4.70128 6.84862
Spine1  13.2222 1.51968 -5.26545
HEad  -32.2854 -1.23182 -5.85653
LeftShoulder1  5.43846 -22.4413 -13.9374
LeftArm  -65.2525 -68.5171 -4.30214
LeftForeArm  6.19061 -30.8655 -6.41211
LeftHand  -0.25398 0.0180481 5.50724
RightShoulder  2.29246 13.4899 5.75549
RightArm  -63.7588 40.5805 -1.95928
RightForeArm  -12.5801 22.6552 5.41042
RightHand  1.41154 3.4249 18.115
LeftUpLeg  -78.822 32.625 -39.504
LeftLeg  26.5615 -11.1919 -5.69543
LeftFoot  5.68348 -1.49682 9.74629
LeftToes  1.06247e-005 4.65855e-005 -8.18504e-006
402
root  64.5688 37.5051 -5.99651 -146.924 -6.90341 -179.014
RightUpLeg  -74.2939 -36.4104 38.107
RightLeg  26.3985 5.12956 2.53631
RightFoot  2.627 1.19418 -9.5706
RightToes  0.000482159 0.542163 -0.142577
Spine  65.5056 -4.57761 6.83486
Spine1  13.2886 1.52036 -5.07936
HEad  -33.0104 0.523845 -7.88957
LeftShoulder1  5.77623 -22.5199 -15.2785
LeftArm  -56.4608 -67.4705 -11.4447
LeftForeArm  2.49747 -30.1954 -6.44851
LeftHand  -0.25398 0.0180481 5.50724
RightShoulder  2.44084 13.6842 6.55576
RightArm  -59.0331 39.038 1.63629
RightForeArm  -13.9073 24.3288 5.88901
RightHand  1.31452 2.58925 18.712
LeftUpLeg  -74.4564 32.6695 -36.6278
LeftLeg  23.626 -11.3225 -5.01571
LeftFoot  6.82669 -1.5421 9.36371
LeftToes  1.06247e-005 4.65855e-005 -8.18504e-006
403
root  64.6509 37.7698 -5.81012 -149.084 -8.79123 -178.86
RightUpLeg  -71.83 -38.7832 38.2388
RightLeg  24.238 5.12896 2.26432
RightFoot  3.1176 1.17716 -9.08415
RightToes  0.000482159 0.542163 -0.142577
Spine  64.488 -4.39417 6.92757
Spine1  13.2783 1.56948 -4.69645
HEad  -34.1465 2.43517 -10.3245
LeftShoulder1  6.21705 -22.8659 -16.7759
LeftArm  -47.2997 -65.1583 -18.875
LeftForeArm  -0.669179 -30.1321 -6.60454
LeftHand  -0.25398 0.0180481 5.50724
RightShoulder  2.6735 13.6221 8.13457
RightArm  -53.8106 37.3365 4.5704
RightForeArm  -14.5375 26.3183 6.37574
RightHand  1.21291 1.66483 19.6056
LeftUpLeg  -69.6429 32.412 -33.4986
LeftLeg  20.1769 -11.3983 -4.34924
LeftFoot  8.19633 -1.64665 9.2449
LeftToes  1.06247e-005 4.65855e-005 -8.18504e-006
